<svg xmlns="http://www.w3.org/2000/svg" viewBox="0 0 320 80" fill="none" preserveAspectRatio="none">
  <path d="M12 44c2-14 18-26 38-32 16-5 42-8 72-8 38 0 76 2 112 6 30 3 52 8 66 16 8 4 12 10 10 17-2 8-12 15-28 20-20 7-52 12-88 14-32 2-68 1-100-2-28-3-54-8-72-15C8 54 4 48 6 42c1-3 3-5 6-7" fill="url(#bs-grad)" opacity="0.92"/>
  <path d="M18 40c4-12 22-22 48-28 20-4 46-5 78-4 36 1 70 5 98 12 18 5 30 11 28 18-2 8-16 14-36 18-24 5-54 8-86 8-30 0-62-2-88-6-22-4-40-10-46-16-2-2-1-4 1-6" fill="url(#bs-grad)" opacity="0.85"/>
  <path d="M4 50c-2-4 4-10 14-15 4-2 3 2 1 4-6 5-10 10-8 14 2 3 8 5 16 6-6 0-14-2-18-5-2-1-4-3-5-4z" fill="url(#bs-grad)" opacity="0.6"/>
  <path d="M296 30c6 2 14 6 16 12 1 3-1 5-4 4-4-2-8-6-14-8 4 0 6-2 8-3-2-2-4-4-6-5z" fill="url(#bs-grad)" opacity="0.5"/>
  <defs>
    <linearGradient id="bs-grad" x1="0%" y1="0%" x2="100%" y2="0%">
      <stop offset="0%" stop-color="#00E0D1"/>
      <stop offset="55%" stop-color="#00B3A8"/>
      <stop offset="100%" stop-color="#0FA79E"/>
    </linearGradient>
  </defs>
</svg>
